<svg width="17" height="17" viewBox="0 0 17 17" fill="none" xmlns="http://www.w3.org/2000/svg">
<g clip-path="url(#clip0_25_203)">
<path d="M0.300301 8.19655L4.21744 9.65855L5.73361 14.5345C5.83063 14.8468 6.2125 14.9623 6.46597 14.755L8.64945 12.975C8.87833 12.7885 9.20433 12.7792 9.44352 12.9529L13.3817 15.8121C13.6529 16.0092 14.037 15.8606 14.105 15.533L16.99 1.6558C17.0642 1.29789 16.7126 0.999318 16.3718 1.13112L0.295711 7.33278C-0.101013 7.48578 -0.097556 8.04746 0.300301 8.19655ZM5.48927 8.88029L13.1448 4.16523C13.2824 4.08074 13.424 4.26677 13.3058 4.37637L6.98776 10.2493C6.76568 10.456 6.62243 10.7327 6.58186 11.0329L6.36664 12.6279C6.33813 12.8408 6.03899 12.862 5.98023 12.6559L5.1525 9.74746C5.05769 9.41573 5.19585 9.0614 5.48927 8.88029Z" fill="white"/>
</g>
<defs>
<clipPath id="clip0_25_203">
<rect width="17" height="17" fill="white"/>
</clipPath>
</defs>
</svg>
